PathFileType	4	(X/Y/Z)	C:\Users\dbl\Desktop\20210112(1)\20210112\bx_y_10_502.trc
DataRate	CameraRate	NumFrames	NumMarkers	Units	OrigDataRate	OrigDataStartFrame	OrigNumFrames
50.00	50.00	       4	43	mm	50.00	63	       499
Frame#	Time	Top.Head			R.Acromium			L.Acromium			Sternum			R.ASIS			L.ASIS			V.Sacral			R.Thigh.Upper			R.Thigh.Front			R.Thigh.Rear			R.Knee.Lat			R.Knee.Med			R.Shank.Upper			R.Shank.Front			R.Shank.Rear			R.Ankle.Lat			R.Midfoot.Lat			R.Toe.Lat			R.Toe.Tip			R.Toe.Med			R.Ankle.Med			R.Midfoot.Sup			R.Heel			L.Thigh.Upper			L.Thigh.Front			L.Thigh.Rear			L.Knee.Lat			L.Knee.Med			L.Shank.Upper			L.Shank.Front			L.Shank.Rear			L.Ankle.Lat			L.Midfoot.Lat			L.Toe.Lat			L.Toe.Tip			L.Toe.Med			L.Ankle.Med			L.Midfoot.Sup			L.Heel			origin1 front left			origin2 front right			origin 3 back right			origin 4 back leftt			
		X1	Y1	Z1	X2	Y2	Z2	X3	Y3	Z3	X4	Y4	Z4	X5	Y5	Z5	X6	Y6	Z6	X7	Y7	Z7	X8	Y8	Z8	X9	Y9	Z9	X10	Y10	Z10	X11	Y11	Z11	X12	Y12	Z12	X13	Y13	Z13	X14	Y14	Z14	X15	Y15	Z15	X16	Y16	Z16	X17	Y17	Z17	X18	Y18	Z18	X19	Y19	Z19	X20	Y20	Z20	X21	Y21	Z21	X22	Y22	Z22	X23	Y23	Z23	X24	Y24	Z24	X25	Y25	Z25	X26	Y26	Z26	X27	Y27	Z27	X28	Y28	Z28	X29	Y29	Z29	X30	Y30	Z30	X31	Y31	Z31	X32	Y32	Z32	X33	Y33	Z33	X34	Y34	Z34	X35	Y35	Z35	X36	Y36	Z36	X37	Y37	Z37	X38	Y38	Z38	X39	Y39	Z39	X40	Y40	Z40	X41	Y41	Z41	X42	Y42	Z42	X43	Y43	Z43	

63	1.240	-388.49957	111.15228	1758.04150	-551.73499	-69.65693	1500.89636	-565.93951	286.61685	1494.77319	-532.55701	103.88078	1364.17358	-681.04944	0.15901	1040.12354	-671.14661	219.88182	1056.08936	-874.71667	100.02788	1075.38135	-737.74011	-64.32652	870.82758	-666.28595	-3.29503	809.02271	-768.91669	-46.16951	716.60815	-756.50336	-24.92480	617.33600	-736.86823	83.75452	574.34943	-762.77734	-21.56824	566.48749	-707.57788	21.92877	525.10425	-799.74786	-32.13977	483.81650	-770.32770	-5.21402	205.34027	-664.69788	-66.75537	162.94736	-623.65015	-77.97934	159.24829	-561.77924	-40.44125	163.60104	-603.59412	19.42643	166.99184	-720.98669	77.32944	217.92233	-675.48724	55.89098	159.06119	-795.54169	55.35168	173.74574	-723.34265	285.57092	878.04034	-664.96088	217.36360	819.49719	-763.23358	281.24045	746.86835	-781.62610	254.03180	638.14423	-739.21814	145.84421	574.01825	-776.89722	249.12366	573.02356	-718.67017	208.07887	535.87213	-809.61407	259.82184	496.04251	-774.25208	224.20236	202.79817	-667.02014	299.63794	159.41861	-629.24701	306.60538	161.36694	-561.56104	260.39484	165.55742	-595.89197	222.94492	174.28870	-716.12866	154.74167	218.91756	-676.32416	173.49805	159.19939	-797.85498	174.50401	182.28558	-528.02783	303.98706	146.26921	-518.00287	-72.41378	142.84146	-876.17267	-78.76205	141.57401	-882.42261	296.08151	144.71806	
64	1.260	-378.30685	110.36057	1750.03455	-544.95093	-69.80215	1495.55640	-559.05084	286.00397	1490.05701	-529.21637	103.46294	1358.57495	-684.12756	0.09945	1039.31653	-674.59204	219.48560	1055.01917	-877.59180	99.75481	1075.85303	-740.74976	-64.38011	870.77051	-669.21747	-3.42362	809.03699	-772.04657	-46.10209	716.01678	-758.37756	-25.35452	617.41510	-738.84546	83.65594	574.18042	-764.63257	-21.67805	566.33905	-709.29291	21.77666	525.14380	-801.28314	-32.26112	483.59225	-770.54486	-5.39689	205.19907	-664.72156	-66.80565	162.88165	-623.63727	-78.05928	159.16626	-561.82654	-40.33430	163.55963	-603.60443	19.43745	167.01627	-721.30103	77.14616	218.10786	-675.73724	55.67448	158.97937	-795.65540	55.16132	173.72220	-726.45306	285.49844	877.93030	-668.05005	217.24757	819.40460	-765.96747	281.45929	746.66577	-783.67889	254.16231	637.81360	-741.09705	145.78838	573.91083	-778.61829	249.17654	572.78955	-720.26410	208.12234	536.01794	-810.89600	260.08466	495.64795	-774.39349	224.44765	202.68073	-667.02533	299.65485	159.36324	-629.16791	306.62045	161.37300	-561.57062	260.28049	165.50441	-595.87225	222.86324	174.10919	-716.31042	154.80522	218.89575	-676.32629	173.54414	159.42174	-797.94727	174.70218	182.09821	-528.05548	304.01620	146.25705	-517.97229	-72.44226	142.90846	-876.05957	-78.73467	141.46919	-882.41809	296.06168	144.69475	
65	1.280	-368.25922	109.47746	1741.75085	-538.14569	-70.06458	1489.93616	-552.11060	285.38132	1485.06140	-525.88391	103.11380	1352.69385	-687.17908	-0.03024	1038.46545	-678.19977	218.88878	1053.72241	-880.60614	99.52956	1076.32349	-743.78662	-64.44399	870.66687	-672.16364	-3.54470	808.90613	-774.94220	-46.31357	715.58112	-760.49603	-25.61185	617.33118	-740.85522	83.49967	574.02301	-766.59344	-21.76586	566.22302	-711.07318	21.59552	525.20184	-802.91882	-32.32674	483.31744	-770.85388	-5.59469	205.07959	-664.76367	-66.88477	162.84276	-623.65430	-78.17869	159.07951	-561.87781	-40.20558	163.54391	-603.64612	19.45088	167.07660	-721.60181	76.92166	218.20154	-675.99823	55.49923	159.00441	-795.81671	54.94617	173.68230	-729.73883	285.49036	877.72180	-671.26617	217.18076	819.21124	-768.90729	281.47205	746.27216	-785.83215	254.29825	637.37531	-743.02246	145.75504	573.74286	-780.38519	249.19653	572.54742	-721.88190	208.12408	536.10468	-812.25323	260.29828	495.19800	-774.54688	224.65842	202.57133	-667.05267	299.66339	159.29311	-629.08643	306.61536	161.37701	-561.60455	260.20700	165.45732	-595.85370	222.80466	173.92981	-716.48596	154.84909	218.92216	-676.33765	173.57274	159.59193	-798.12811	174.76424	182.02295	-528.04987	304.00674	146.26753	-517.94098	-72.49971	143.00577	-875.87067	-78.60174	141.37276	-882.42383	296.05872	144.67961	
66	1.300	-358.34607	108.56036	1733.22070	-531.36426	-70.36465	1484.04248	-545.14752	284.68893	1479.77551	-522.60645	102.80188	1346.55835	-690.14227	-0.23038	1037.55933	-682.00336	218.17239	1052.29797	-883.71423	99.33301	1076.80457	-746.82446	-64.54886	870.52325	-675.13672	-3.63675	808.67792	-777.50281	-46.77289	715.37506	-762.78009	-25.69305	617.10669	-742.84747	83.29522	573.89099	-768.64301	-21.79619	566.11646	-712.88062	21.41047	525.29266	-804.66040	-32.33498	483.00494	-771.19904	-5.77951	204.97246	-664.79846	-66.96925	162.80255	-623.68878	-78.29899	158.98897	-561.94012	-40.02673	163.54332	-603.73425	19.44344	167.16791	-721.85437	76.68342	218.28545	-676.20923	55.36528	159.16307	-795.95056	54.78692	173.63844	-733.21527	285.57135	877.46301	-674.62360	217.22806	818.93097	-772.11755	281.25589	745.61896	-788.13763	254.37836	636.81567	-744.98785	145.73370	573.52277	-782.23663	249.22101	572.31677	-723.53436	208.05373	536.10870	-813.69824	260.44778	494.75082	-774.67499	224.78688	202.46181	-667.06110	299.66754	159.21826	-629.00452	306.57953	161.36931	-561.61798	260.13293	165.40939	-595.84796	222.76897	173.80429	-716.64398	154.89134	219.00987	-676.34998	173.59531	159.69225	-798.32874	174.76640	182.02609	-527.99225	303.98431	146.30389	-517.93219	-72.56660	143.07999	-875.70685	-78.44499	141.33295	-882.44586	296.07922	144.67863	
